<?xml version="1.0" standalone="no"?><!DOCTYPE svg PUBLIC "-//W3C//DTD SVG 1.1//EN" "http://www.w3.org/Graphics/SVG/1.1/DTD/svg11.dtd"><svg t="1612705724631" class="icon" viewBox="0 0 1024 1024" version="1.1" xmlns="http://www.w3.org/2000/svg" p-id="3558" xmlns:xlink="http://www.w3.org/1999/xlink" width="200" height="200"><defs><style type="text/css"></style></defs><path d="M963.2 57.6c0-17.6-19.2-27.2-33.6-19.2l-251.2 144H344l-251.2-144c-14.4-8-32 3.2-32 19.2l6.4 337.6 4.8 312c0 161.6 132.8 294.4 294.4 294.4h300.8c161.6 0 294.4-132.8 294.4-294.4l-4.8-313.6 6.4-336z" fill="#9E9E9E" p-id="3559"></path><path d="M123.2 108.8l158.4 91.2c8 4.8 8 16 0 20.8l-155.2 91.2c-8 4.8-17.6-1.6-19.2-9.6L104 121.6c0-11.2 11.2-17.6 19.2-12.8zM899.2 108.8l-158.4 91.2c-8 4.8-8 16 0 20.8l155.2 91.2c8 4.8 17.6-1.6 19.2-9.6l3.2-182.4c1.6-9.6-9.6-16-19.2-11.2z" fill="#FFCDD2" p-id="3560"></path><path d="M729.6 827.2c-73.6 0-129.6-20.8-164.8-64-33.6-41.6-38.4-91.2-38.4-110.4v-8-1.6c0-1.6 0-3.2-1.6-4.8 0-1.6-1.6-1.6-1.6-1.6l-1.6-1.6s-1.6 0-1.6-1.6h-1.6-1.6s-1.6 0-1.6 1.6l-1.6 1.6-1.6 1.6c0 1.6-1.6 3.2-1.6 4.8v9.6c0 19.2-4.8 70.4-38.4 110.4-35.2 41.6-89.6 64-164.8 64-4.8 0-8 4.8-8 9.6s3.2 9.6 8 9.6c78.4 0 137.6-24 176-70.4 17.6-22.4 28.8-46.4 35.2-68.8 6.4 22.4 16 46.4 35.2 68.8 38.4 46.4 97.6 70.4 176 70.4 4.8 0 8-4.8 8-9.6 0-6.4-3.2-9.6-8-9.6z" fill="#455A64" p-id="3561"></path><path d="M588.8 596.8l-38.4 32c-12.8 16-44.8 16-57.6 0l-38.4-30.4c-12.8-16 3.2-35.2 28.8-35.2h75.2c27.2-1.6 43.2 17.6 30.4 33.6z" fill="#FFCDD2" p-id="3562"></path><path d="M680 184s-75.2-126.4-180.8-126.4c8 16 11.2 27.2 14.4 36.8 3.2 11.2-6.4 24-17.6 24-48 0-168 12.8-177.6 144 25.6-22.4 56-27.2 75.2-28.8 9.6 0 19.2 8 19.2 17.6 0 22.4 6.4 59.2 48 86.4 22.4-75.2 64-148.8 219.2-153.6z" fill="#455A64" p-id="3563"></path><path d="M196.8 646.4m-14.4 0a14.4 14.4 0 1 0 28.8 0 14.4 14.4 0 1 0-28.8 0Z" fill="#D7CCC8" p-id="3564"></path><path d="M252.8 708.8m-14.4 0a14.4 14.4 0 1 0 28.8 0 14.4 14.4 0 1 0-28.8 0Z" fill="#D7CCC8" p-id="3565"></path><path d="M308.8 646.4m-14.4 0a14.4 14.4 0 1 0 28.8 0 14.4 14.4 0 1 0-28.8 0Z" fill="#D7CCC8" p-id="3566"></path><path d="M692.8 646.4m-14.4 0a14.4 14.4 0 1 0 28.8 0 14.4 14.4 0 1 0-28.8 0Z" fill="#D7CCC8" p-id="3567"></path><path d="M748.8 708.8m-14.4 0a14.4 14.4 0 1 0 28.8 0 14.4 14.4 0 1 0-28.8 0Z" fill="#D7CCC8" p-id="3568"></path><path d="M804.8 646.4m-14.4 0a14.4 14.4 0 1 0 28.8 0 14.4 14.4 0 1 0-28.8 0Z" fill="#D7CCC8" p-id="3569"></path><path d="M417.6 512c-12.8 0-22.4-8-22.4-19.2 0-4.8 3.2-9.6 6.4-12.8-4.8-3.2-11.2-6.4-17.6-6.4-19.2 0-36.8 17.6-36.8 40s16 40 36.8 40c19.2 0 36.8-17.6 36.8-40v-3.2c-1.6 1.6-3.2 1.6-3.2 1.6zM689.6 512c-12.8 0-22.4-8-22.4-19.2 0-4.8 3.2-9.6 6.4-12.8-4.8-3.2-11.2-6.4-17.6-6.4-19.2 0-36.8 17.6-36.8 40s16 40 36.8 40 36.8-17.6 36.8-40v-3.2c-1.6 1.6-3.2 1.6-3.2 1.6z" fill="#212121" p-id="3570"></path></svg>